<svg width="267" height="62" viewBox="0 0 267 62" fill="none" xmlns="http://www.w3.org/2000/svg">
<path fill-rule="evenodd" clip-rule="evenodd" d="M117.352 7.48673C74.2302 11.4672 35.4577 31.2195 4.23828 57.2362L4.87847 58.0044C35.9698 32.0945 74.5374 12.457 117.389 8.48758C117.372 8.15576 117.36 7.8221 117.352 7.48673ZM149.124 8.48372C185.028 11.8071 223.226 26.6831 262.077 58.0098L262.704 57.2313C223.692 25.7744 185.29 10.8152 149.161 7.48279C149.153 7.81818 149.14 8.15187 149.124 8.48372Z" fill="#EABE23"/>
<circle cx="261.975" cy="57.5483" r="4.29468" transform="rotate(-180 261.975 57.5483)" fill="#1354A9"/>
<path d="M143.783 11.9106H124.199C124.062 11.9106 123.931 11.9589 123.835 12.0448C123.738 12.1307 123.684 12.2472 123.684 12.3687V13.2849C123.684 13.4064 123.738 13.5229 123.835 13.6088C123.931 13.6947 124.062 13.743 124.199 13.743H143.783C143.919 13.743 144.05 13.6947 144.147 13.6088C144.244 13.5229 144.298 13.4064 144.298 13.2849V12.3687C144.298 12.2472 144.244 12.1307 144.147 12.0448C144.05 11.9589 143.919 11.9106 143.783 11.9106ZM126.279 8.85427C126.378 8.95079 126.5 9.02784 126.634 9.08053C126.769 9.13321 126.915 9.16037 127.062 9.16027H131.268C131.599 9.16001 131.926 9.09033 132.222 8.95688L141.593 4.72966C142.467 4.35311 143.211 3.77701 143.752 3.06039C144.341 2.245 144.405 1.65498 144.164 1.23721C143.923 0.819435 143.366 0.513431 142.288 0.451132C141.323 0.410627 140.364 0.600436 139.509 1.00084L136.337 2.4319L129.301 0.0864995C129.216 0.0359477 129.118 0.00640582 129.016 0.000929819C128.914 -0.00454618 128.813 0.0142384 128.722 0.0553457L126.605 1.01C126.524 1.04652 126.454 1.09908 126.4 1.16359C126.346 1.22809 126.31 1.30279 126.294 1.38187C126.277 1.46096 126.282 1.54229 126.307 1.61953C126.332 1.69678 126.377 1.76786 126.438 1.82723L131.47 4.63621L128.145 6.13507L125.815 5.09063C125.735 5.05456 125.646 5.03577 125.556 5.03577C125.467 5.03577 125.378 5.05456 125.298 5.09063L124.005 5.67332C123.926 5.70948 123.858 5.76096 123.805 5.82394C123.751 5.88693 123.715 5.95978 123.697 6.03709C123.68 6.11439 123.683 6.19416 123.705 6.27045C123.727 6.34674 123.769 6.41759 123.826 6.47772L126.279 8.85427Z" fill="#1354A9"/>
<circle cx="4.29517" cy="57.5483" r="4.29468" transform="rotate(-180 4.29517 57.5483)" fill="#1354A9"/>
</svg>
